<svg xmlns="http://www.w3.org/2000/svg" viewBox="0 0 1500 550" font-family="sans-serif">
  <ellipse cx="340" cy="70" rx="110" ry="35" stroke="#94a3b8" stroke-width="2" fill="none"/>

  <g stroke="#6366f1" stroke-width="3" stroke-linecap="round" fill="none">
    <line x1="340" y1="70" x2="322" y2="50"/>
    <line x1="322" y1="50" x2="306" y2="50"/>
    <line x1="306" y1="50" x2="290" y2="50"/>
    <line x1="290" y1="50" x2="250" y2="70"/>
    <line x1="340" y1="70" x2="358" y2="50"/>
    <line x1="358" y1="50" x2="374" y2="50"/>
    <line x1="374" y1="50" x2="390" y2="50"/>
    <line x1="390" y1="50" x2="430" y2="70"/>
    <line x1="322" y1="95" x2="358" y2="95"/>

    <line x1="200" y1="170" x2="400" y2="170"/>
    <line x1="400" y1="170" x2="440" y2="215"/>
    <line x1="440" y1="215" x2="490" y2="252"/>
    <line x1="200" y1="170" x2="160" y2="215"/>
    <line x1="160" y1="215" x2="110" y2="252"/>

    <line x1="490" y1="252" x2="510" y2="245"/>
    <line x1="490" y1="252" x2="525" y2="232"/>
    <line x1="490" y1="252" x2="495" y2="232"/>
    <line x1="510" y1="245" x2="525" y2="232"/>

    <line x1="110" y1="252" x2="90" y2="245"/>
    <line x1="110" y1="252" x2="75" y2="232"/>
    <line x1="110" y1="252" x2="105" y2="232"/>
    <line x1="90" y1="245" x2="75" y2="232"/>

    <line x1="400" y1="170" x2="370" y2="305"/>
    <line x1="200" y1="170" x2="230" y2="305"/>
    <line x1="230" y1="305" x2="370" y2="305"/>

    <line x1="370" y1="305" x2="380" y2="380"/>
    <line x1="380" y1="380" x2="385" y2="460"/>
    <line x1="230" y1="305" x2="220" y2="380"/>
    <line x1="220" y1="380" x2="215" y2="460"/>

    <line x1="385" y1="460" x2="390" y2="482"/>
    <line x1="390" y1="482" x2="425" y2="488"/>
    <line x1="385" y1="460" x2="425" y2="488"/>

    <line x1="215" y1="460" x2="210" y2="482"/>
    <line x1="210" y1="482" x2="175" y2="488"/>
    <line x1="215" y1="460" x2="175" y2="488"/>
  </g>

  <g fill="#dc2626">
    <circle cx="340" cy="70" r="5"/>
    <circle cx="358" cy="50" r="5"/>
    <circle cx="374" cy="50" r="5"/>
    <circle cx="390" cy="50" r="5"/>
    <circle cx="322" cy="50" r="5"/>
    <circle cx="306" cy="50" r="5"/>
    <circle cx="290" cy="50" r="5"/>
    <circle cx="430" cy="70" r="5"/>
    <circle cx="250" cy="70" r="5"/>
    <circle cx="358" cy="95" r="5"/>
    <circle cx="322" cy="95" r="5"/>

    <circle cx="400" cy="170" r="7"/>
    <circle cx="200" cy="170" r="7"/>
    <circle cx="440" cy="215" r="7"/>
    <circle cx="160" cy="215" r="7"/>
    <circle cx="490" cy="252" r="7"/>
    <circle cx="110" cy="252" r="7"/>
    <circle cx="510" cy="245" r="7"/>
    <circle cx="90" cy="245" r="7"/>
    <circle cx="525" cy="232" r="7"/>
    <circle cx="75" cy="232" r="7"/>
    <circle cx="495" cy="232" r="7"/>
    <circle cx="105" cy="232" r="7"/>
    <circle cx="370" cy="305" r="7"/>
    <circle cx="230" cy="305" r="7"/>
    <circle cx="380" cy="380" r="7"/>
    <circle cx="220" cy="380" r="7"/>
    <circle cx="385" cy="460" r="7"/>
    <circle cx="215" cy="460" r="7"/>
    <circle cx="390" cy="482" r="7"/>
    <circle cx="210" cy="482" r="7"/>
    <circle cx="425" cy="488" r="7"/>
    <circle cx="175" cy="488" r="7"/>
  </g>

  <g font-size="18" fill="#000">
    <text x="345" y="80">0</text>
    <text x="354" y="42">1</text>
    <text x="370" y="42">2</text>
    <text x="386" y="42">3</text>
    <text x="318" y="42">4</text>
    <text x="302" y="42">5</text>
    <text x="282" y="42">6</text>
    <text x="440" y="75">7</text>
    <text x="232" y="75">8</text>
    <text x="362" y="115">9</text>
    <text x="308" y="115">10</text>

    <text x="410" y="162">11</text>
    <text x="178" y="162">12</text>
    <text x="450" y="218">13</text>
    <text x="138" y="218">14</text>
    <text x="478" y="272">15</text>
    <text x="98" y="272">16</text>
    <text x="518" y="240">17</text>
    <text x="68" y="240">18</text>
    <text x="532" y="225">19</text>
    <text x="50" y="225">20</text>
    <text x="476" y="222">21</text>
    <text x="92" y="222">22</text>
    <text x="378" y="300">23</text>
    <text x="208" y="300">24</text>
    <text x="388" y="375">25</text>
    <text x="200" y="375">26</text>
    <text x="395" y="455">27</text>
    <text x="194" y="455">28</text>
    <text x="378" y="500">29</text>
    <text x="218" y="500">30</text>
    <text x="430" y="498">31</text>
    <text x="156" y="498">32</text>
  </g>

  <g font-size="20" fill="#000">
    <text x="780" y="40">0. nose</text>
    <text x="780" y="68">1. left_eye_inner</text>
    <text x="780" y="96">2. left_eye</text>
    <text x="780" y="124">3. left_eye_outer</text>
    <text x="780" y="152">4. right_eye_inner</text>
    <text x="780" y="180">5. right_eye</text>
    <text x="780" y="208">6. right_eye_outer</text>
    <text x="780" y="236">7. left_ear</text>
    <text x="780" y="264">8. right_ear</text>
    <text x="780" y="292">9. mouth_left</text>
    <text x="780" y="320">10. mouth_right</text>
    <text x="780" y="348">11. left_shoulder</text>
    <text x="780" y="376">12. right_shoulder</text>
    <text x="780" y="404">13. left_elbow</text>
    <text x="780" y="432">14. right_elbow</text>
    <text x="780" y="460">15. left_wrist</text>
    <text x="780" y="488">16. right_wrist</text>
  </g>
  <g font-size="20" fill="#000">
    <text x="1180" y="40">17. left_pinky</text>
    <text x="1180" y="68">18. right_pinky</text>
    <text x="1180" y="96">19. left_index</text>
    <text x="1180" y="124">20. right_index</text>
    <text x="1180" y="152">21. left_thumb</text>
    <text x="1180" y="180">22. right_thumb</text>
    <text x="1180" y="208">23. left_hip</text>
    <text x="1180" y="236">24. right_hip</text>
    <text x="1180" y="264">25. left_knee</text>
    <text x="1180" y="292">26. right_knee</text>
    <text x="1180" y="320">27. left_ankle</text>
    <text x="1180" y="348">28. right_ankle</text>
    <text x="1180" y="376">29. left_heel</text>
    <text x="1180" y="404">30. right_heel</text>
    <text x="1180" y="432">31. left_foot_index</text>
    <text x="1180" y="460">32. right_foot_index</text>
  </g>
</svg>
